<svg width="48" height="49" viewBox="0 0 48 49" fill="none" xmlns="http://www.w3.org/2000/svg">
<g id="Frame 9">
<rect y="0.236816" width="48" height="48" rx="24" fill="#212C9C"/>
<g id="telegram">
<path id="Path" d="M35.951 14.7592C35.9126 14.5789 35.7794 14.4335 35.603 14.3797C35.2877 14.3169 34.9612 14.3402 34.658 14.4472C34.658 14.4472 13.6308 22.0038 12.4294 22.8407C12.1714 23.0222 12.0844 23.1257 12.0409 23.2487C11.8339 23.8487 12.4803 24.1082 12.4803 24.1082L17.8995 25.8736C17.991 25.8901 18.0851 25.8844 18.174 25.8571C19.4069 25.0786 30.5783 18.0245 31.2232 17.7875C31.3252 17.7575 31.4002 17.7875 31.3732 17.861C31.1152 18.761 21.4648 27.339 21.4123 27.3915C21.3603 27.4349 21.3329 27.501 21.3388 27.5685L20.8334 32.8601C20.8334 32.8601 20.6204 34.51 22.2673 32.8601C23.4357 31.6917 24.5576 30.7228 25.1171 30.2533C26.98 31.5402 28.9854 32.9621 29.8508 33.7031C30.1437 33.9883 30.5402 34.1416 30.9488 34.1276C31.4584 34.0646 31.8762 33.6933 31.9987 33.1946C31.9987 33.1946 35.84 17.783 35.9675 15.7087C35.9795 15.5062 35.999 15.3832 35.999 15.2332C36.0044 15.0738 35.9883 14.9143 35.951 14.7592Z" fill="white"/>
</g>
</g>
</svg>
