<svg width="49" height="49" viewBox="0 0 49 49" fill="none" xmlns="http://www.w3.org/2000/svg">
<g id="Frame 8">
<rect x="0.193848" y="0.236816" width="48" height="48" rx="24" fill="#212C9C"/>
<path id="Path" d="M36.1938 16.7368C35.2938 17.1868 34.3938 17.3368 33.3438 17.4868C34.3938 16.8868 35.1438 15.9868 35.4438 14.7868C34.5438 15.3868 33.4938 15.6868 32.2938 15.9868C31.3938 15.0868 30.0438 14.4868 28.6938 14.4868C26.1438 14.4868 23.8938 16.7368 23.8938 19.4368C23.8938 19.8868 23.8938 20.1868 24.0438 20.4868C19.9938 20.3368 16.2438 18.3868 13.8438 15.3868C13.3938 16.1368 13.2438 16.8868 13.2438 17.9368C13.2438 19.5868 14.1438 21.0868 15.4938 21.9868C14.7438 21.9868 13.9938 21.6868 13.2438 21.3868C13.2438 23.7868 14.8938 25.7368 17.1438 26.1868C16.6938 26.3368 16.2438 26.3368 15.7938 26.3368C15.4938 26.3368 15.1938 26.3368 14.8938 26.1868C15.4938 28.1368 17.2938 29.6368 19.5438 29.6368C17.8938 30.9868 15.7938 31.7368 13.3938 31.7368C12.9438 31.7368 12.6438 31.7368 12.1938 31.7368C14.4438 33.0868 16.9938 33.9868 19.6938 33.9868C28.6938 33.9868 33.6438 26.4868 33.6438 20.0368C33.6438 19.8868 33.6438 19.5868 33.6438 19.4368C34.6938 18.6868 35.5938 17.7868 36.1938 16.7368Z" fill="white"/>
</g>
</svg>
